<?xml version="1.0" standalone="no"?><!DOCTYPE svg PUBLIC "-//W3C//DTD SVG 1.1//EN" "http://www.w3.org/Graphics/SVG/1.1/DTD/svg11.dtd"><svg t="1612274311509" class="icon" viewBox="0 0 1024 1024" version="1.1" xmlns="http://www.w3.org/2000/svg" p-id="3098" xmlns:xlink="http://www.w3.org/1999/xlink" width="200" height="200"><defs><style type="text/css"></style></defs><path d="M512 0A512 512 0 1 1 0 512 512.485769 512.485769 0 0 1 512 0z m0 68.493359a443.99241 443.99241 0 1 0 443.99241 443.99241 444.963947 444.963947 0 0 0-443.99241-443.99241z m184.59203 184.59203a34.003795 34.003795 0 0 1 0 68.493359h-150.102466V388.614801a238.998102 238.998102 0 0 1 204.994307 235.597723v39.347248a34.003795 34.003795 0 1 1-68.493359 0v-39.347248a170.504744 170.504744 0 0 0-136.500948-167.104365v349.753321a34.003795 34.003795 0 1 1-68.493359 0V457.593928A170.504744 170.504744 0 0 0 340.037951 624.698292v39.347249a34.003795 34.003795 0 1 1-68.493359 0v-39.347249A239.483871 239.483871 0 0 1 477.996205 388.614801V321.092979H327.893738a34.003795 34.003795 0 1 1 0-68.493359h368.698292z" p-id="3099" fill="#454545"></path></svg>