<?xml version="1.0" standalone="no"?><!DOCTYPE svg PUBLIC "-//W3C//DTD SVG 1.1//EN" "http://www.w3.org/Graphics/SVG/1.1/DTD/svg11.dtd"><svg t="1612418979900" class="icon" viewBox="0 0 1131 1024" version="1.1" xmlns="http://www.w3.org/2000/svg" p-id="1131" xmlns:xlink="http://www.w3.org/1999/xlink" width="220.8984375" height="200"><defs><style type="text/css"></style></defs><path d="M362.227 297.66l-198.872 27.972a129.24 129.24 0 0 0-73.135 36.11l-7.438 7.976c-41.984 49.475-37.726 122.718 9.701 167.074l143.9 135.922-33.9 192.027a120.347 120.347 0 0 0 12.88 78.579l5.228 8.784a130.21 130.21 0 0 0 167.343 43.224l177.907-90.65 178.014 90.65c24.846 12.665 53.356 17.03 81.058 12.396l9.755-1.994c64.135-15.63 106.01-76.8 94.639-140.989l-34.008-192.027 143.953-135.869c20.157-19.024 33.253-43.924 37.295-70.817l1.078-9.701c4.42-63.92-42.684-121.371-109.19-130.695l-198.926-28.025-88.98-174.673a125.898 125.898 0 0 0-58.045-56.212c-63.38-30.29-139.91-5.066-171.223 56.158l-89.034 174.78z m241.825-138.185L712.92 373.059l243.28 34.277c23.283 3.234 39.451 24.145 36.002 46.727a40.906 40.906 0 0 1-12.396 23.66L803.732 643.988l41.5 234.766a41.337 41.337 0 0 1-34.655 47.589 43.816 43.816 0 0 1-27.055-4.096L565.895 811.385 348.322 922.247a43.277 43.277 0 0 1-57.614-17.354 40.152 40.152 0 0 1-4.257-26.14l41.498-234.765-175.966-166.265a40.367 40.367 0 0 1-0.754-58.368 43.116 43.116 0 0 1 24.36-12.019l243.335-34.33 108.705-213.478a43.116 43.116 0 0 1 50.662-21.234l6.36 2.48a41.984 41.984 0 0 1 19.401 18.754z" p-id="1132" fill="#454545"></path></svg>