<?xml version="1.0" standalone="no"?><!DOCTYPE svg PUBLIC "-//W3C//DTD SVG 1.1//EN" "http://www.w3.org/Graphics/SVG/1.1/DTD/svg11.dtd"><svg t="1602597795752" class="icon" viewBox="0 0 1024 1024" version="1.1" xmlns="http://www.w3.org/2000/svg" p-id="2880" xmlns:xlink="http://www.w3.org/1999/xlink" width="200" height="200"><defs><style type="text/css"></style></defs><path d="M450.67137048 237.03717324L450.67137048 237.03717324c16.07805352-15.93877002 38.42158158-25.25921197 61.25608633-25.25921198l0 0c22.98307446 0 45.25347746 9.31928157 61.40465603 25.25921198l419.6404603 419.78670931 0 0c33.87510834 33.86698358 33.87510834 88.86688158 0 122.73270479l0 0c-33.92966204 33.79385964-88.72063369 33.79385964-122.58645691 0L511.92745569 421.31149685 153.75665061 779.55658734l0 0c-34.01091076 33.7985022-88.79723985 33.7985022-122.73270481-0.14508752l0 0c-33.87278761-33.72189607-33.87278761-88.72179406 0-122.58761727L450.67137048 237.03717324 450.67137048 237.03717324zM450.67137048 237.03717324" p-id="2881" fill="#454545"></path></svg>